# Blender 5.1.2
# www.blender.org
mtllib CatCoffin.mtl
o Cube
v 0.250000 1.250000 -0.386436
v 0.250000 -1.250000 -0.295878
v 0.250000 1.250000 0.386436
v 0.250000 -1.250000 0.295878
v -0.250000 1.042416 -0.336189
v -0.250000 -1.250000 -0.295878
v -0.250000 1.042416 0.336189
v -0.250000 -1.250000 0.295878
v 0.250000 0.602219 -0.609979
v -0.250000 0.478863 0.530666
v 0.250000 0.602219 0.609979
v -0.250000 0.478863 -0.530666
v 0.000000 -1.250000 -0.295878
v -0.090147 1.146617 0.355110
v 0.000000 -1.250000 0.295878
v -0.090147 1.146617 -0.355110
v -0.090147 0.551346 -0.560533
v -0.090147 0.551346 0.560533
vn -0.5461 0.8377 -0.0000
vn -0.3087 0.3103 0.8991
vn -1.0000 -0.0000 -0.0000
vn -0.0000 -1.0000 -0.0000
vn 1.0000 -0.0000 -0.0000
vn -0.1831 0.3207 -0.9293
vn -0.0000 -0.1672 -0.9859
vn -0.0000 -0.1454 0.9894
vn -0.0000 -0.1672 0.9859
vn -0.0000 -0.1454 -0.9894
vn -0.3087 0.3103 -0.8991
vn -0.1831 0.3207 0.9293
vn -0.2908 0.9568 -0.0000
vn -0.1202 -0.1502 -0.9813
vn -0.1232 -0.1335 0.9834
vn -0.1202 -0.1502 0.9813
vn -0.1232 -0.1335 -0.9834
vt 0.375813 0.458127
vt 0.686310 0.265467
vt 0.686310 0.458127
vt 0.401020 0.698774
vt 0.636283 0.847940
vt 0.401020 0.847940
vt 0.625000 0.000000
vt 0.666377 0.531007
vt 0.638389 0.254558
vt 0.409622 0.162481
vt 0.677915 0.502520
vt 0.409622 0.502520
vt 0.679416 0.958082
vt 0.304262 0.712858
vt 0.763580 0.712858
vt 0.625000 0.329926
vt 0.560222 0.500000
vt 0.632439 0.521094
vt 0.417258 0.509086
vt 0.375000 0.500000
vt 0.422522 0.011679
vt 0.645320 0.011679
vt 0.459515 0.518172
vt 0.421825 0.392204
vt 0.542782 0.826993
vt 0.345486 0.636607
vt 0.496324 0.571113
vt 0.748010 0.737882
vt 0.647161 0.505619
vt 0.625000 0.250000
vt 0.677915 0.842558
vt 0.409622 0.842558
vt 0.401020 0.381366
vt 0.636283 0.698774
vt 0.686310 0.868085
vt 0.375813 0.868085
vt 0.375813 0.265467
vt 0.677915 0.162481
vt 0.388427 0.958082
vt 0.625000 0.500000
vt 0.446335 0.868870
vt 0.636283 0.381366
s 0
usemtl Material
f 16/1/1 7/2/1 14/3/1
f 18/4/2 7/5/2 10/6/2
f 7/7/3 12/8/3 10/9/3
f 2/10/4 15/11/4 13/12/4
f 1/13/5 11/14/5 9/15/5
f 16/16/6 9/17/6 17/18/6
f 13/19/7 9/17/7 2/20/7
f 9/15/5 4/21/5 2/22/5
f 10/9/3 6/23/3 8/24/3
f 18/25/8 8/26/8 15/27/8
f 11/28/9 15/27/9 4/29/9
f 6/23/10 17/18/10 13/19/10
f 5/30/11 17/18/11 12/8/11
f 13/12/4 8/31/4 6/32/4
f 11/33/12 14/34/12 18/4/12
f 16/1/13 3/35/13 1/36/13
f 16/1/1 5/37/1 7/2/1
f 18/4/2 14/34/2 7/5/2
f 7/7/3 5/30/3 12/8/3
f 2/10/4 4/38/4 15/11/4
f 1/13/5 3/39/5 11/14/5
f 16/16/6 1/40/6 9/17/6
f 13/19/14 17/18/14 9/17/14
f 9/15/5 11/14/5 4/21/5
f 10/9/3 12/8/3 6/23/3
f 18/25/15 10/41/15 8/26/15
f 11/28/16 18/25/16 15/27/16
f 6/23/17 12/8/17 17/18/17
f 5/30/11 16/16/11 17/18/11
f 13/12/4 15/11/4 8/31/4
f 11/33/12 3/42/12 14/34/12
f 16/1/13 14/3/13 3/35/13
