# Blender 5.1.2
# www.blender.org
mtllib CatStairs.mtl
o Cube
v 1.000000 -1.000000 -1.000000
v 1.000000 -1.000000 1.000000
v -1.000000 1.000000 -1.000000
v -1.000000 -1.000000 -1.000000
v -1.000000 1.000000 1.000000
v -1.000000 -1.000000 1.000000
v 0.714286 -1.000000 -1.000000
v 0.428571 -1.000000 -1.000000
v 0.142857 -1.000000 -1.000000
v -0.142857 -1.000000 -1.000000
v -0.428571 -1.000000 -1.000000
v -0.714286 -1.000000 -1.000000
v -0.714286 1.000000 1.000000
v -0.714286 -1.000000 1.000000
v -0.428571 -1.000000 1.000000
v -0.142857 -1.000000 1.000000
v 0.142857 -1.000000 1.000000
v 0.428571 -1.000000 1.000000
v 0.714286 -1.000000 1.000000
v -0.714286 1.000000 -1.000000
v 1.000000 -0.714286 -1.000000
v -1.000000 -0.714286 1.000000
v -1.000000 -0.428571 1.000000
v -1.000000 -0.142857 1.000000
v -1.000000 0.142857 1.000000
v -1.000000 0.428571 1.000000
v -1.000000 0.714286 1.000000
v 1.000000 -0.714286 1.000000
v -1.000000 0.714286 -1.000000
v -1.000000 0.428571 -1.000000
v -1.000000 0.142857 -1.000000
v -1.000000 -0.142857 -1.000000
v -1.000000 -0.428571 -1.000000
v -1.000000 -0.714286 -1.000000
v -0.714286 0.714286 -1.000000
v -0.714286 0.428571 -1.000000
v -0.714286 0.142857 -1.000000
v -0.714286 -0.142857 -1.000000
v -0.714286 -0.428571 -1.000000
v -0.714286 -0.714286 -1.000000
v -0.428571 0.714286 -1.000000
v -0.428571 0.428571 -1.000000
v -0.428571 0.142857 -1.000000
v -0.428571 -0.142857 -1.000000
v -0.428571 -0.428571 -1.000000
v -0.428571 -0.714286 -1.000000
v -0.142857 0.428571 -1.000000
v -0.142857 0.142857 -1.000000
v -0.142857 -0.142857 -1.000000
v -0.142857 -0.428571 -1.000000
v -0.142857 -0.714286 -1.000000
v 0.142857 0.142857 -1.000000
v 0.142857 -0.142857 -1.000000
v 0.142857 -0.428571 -1.000000
v 0.142857 -0.714286 -1.000000
v 0.428571 -0.142857 -1.000000
v 0.428571 -0.428571 -1.000000
v 0.428571 -0.714286 -1.000000
v 0.714286 -0.428571 -1.000000
v 0.714286 -0.714286 -1.000000
v 0.714286 -0.428571 1.000000
v 0.714286 -0.714286 1.000000
v 0.428571 -0.142857 1.000000
v 0.428571 -0.428571 1.000000
v 0.428571 -0.714286 1.000000
v 0.142857 0.142857 1.000000
v 0.142857 -0.142857 1.000000
v 0.142857 -0.428571 1.000000
v 0.142857 -0.714286 1.000000
v -0.142857 0.428571 1.000000
v -0.142857 0.142857 1.000000
v -0.142857 -0.142857 1.000000
v -0.142857 -0.428571 1.000000
v -0.142857 -0.714286 1.000000
v -0.428571 0.714286 1.000000
v -0.428571 0.428571 1.000000
v -0.428571 0.142857 1.000000
v -0.428571 -0.142857 1.000000
v -0.428571 -0.428571 1.000000
v -0.428571 -0.714286 1.000000
v -0.714286 0.714286 1.000000
v -0.714286 0.428571 1.000000
v -0.714286 0.142857 1.000000
v -0.714286 -0.142857 1.000000
v -0.714286 -0.428571 1.000000
v -0.714286 -0.714286 1.000000
vn -0.0000 1.0000 -0.0000
vn -0.0000 -0.0000 1.0000
vn -1.0000 -0.0000 -0.0000
vn -0.0000 -1.0000 -0.0000
vn -0.0000 -0.0000 -1.0000
vn 1.0000 -0.0000 -0.0000
vt -0.257558 1.237982
vt -0.149045 -0.237982
vt -0.149044 1.237982
vt 0.142929 0.999900
vt 0.000100 0.857071
vt 0.142929 0.857071
vt 0.000100 0.999900
vt 0.142929 0.000100
vt 0.142929 0.999900
vt 0.999900 0.999900
vt 0.000100 0.857071
vt 0.999900 0.857071
vt 0.999900 0.000100
vt 0.857071 0.142929
vt 0.857071 0.000100
vt 0.999900 0.142929
vt 0.000100 0.000100
vt 0.999900 0.000100
vt 0.999900 0.285757
vt 0.000100 0.142929
vt 0.999900 0.428586
vt 0.000100 0.285757
vt 0.999900 0.571414
vt 0.000100 0.428586
vt 0.999900 0.714243
vt 0.000100 0.571414
vt 0.000100 0.714243
vt 0.285757 0.142929
vt 0.142929 0.000100
vt 0.285757 0.000100
vt 0.285757 0.285757
vt 0.142929 0.142929
vt 0.285757 0.428586
vt 0.142929 0.285757
vt 0.285757 0.571414
vt 0.142929 0.428586
vt 0.285757 0.714243
vt 0.142929 0.571414
vt 0.285757 0.857071
vt 0.142929 0.714243
vt 0.428586 0.142929
vt 0.428586 0.000100
vt 0.428586 0.285757
vt 0.428586 0.428586
vt 0.428586 0.571414
vt 0.428586 0.714243
vt 0.571414 0.142929
vt 0.571414 0.000100
vt 0.571414 0.285757
vt 0.571414 0.428586
vt 0.571414 0.571414
vt 0.714243 0.142929
vt 0.714243 0.000100
vt 0.714243 0.285757
vt 0.714243 0.428586
vt 0.857071 0.142929
vt 0.857071 0.000100
vt 0.857071 0.285757
vt 0.999900 0.142929
vt 0.999900 0.000100
vt 0.000100 0.857071
vt 0.000100 0.714243
vt 0.285757 0.714243
vt 0.142929 0.857071
vt 0.142929 0.571414
vt 0.000100 0.571414
vt 0.285757 0.571414
vt 0.428586 0.571414
vt 0.142929 0.428586
vt 0.000100 0.428586
vt 0.428586 0.428586
vt 0.571414 0.428586
vt 0.000100 0.285757
vt 0.285757 0.285757
vt 0.428586 0.285757
vt 0.571414 0.285757
vt 0.714243 0.285757
vt 0.142929 0.142929
vt 0.000100 0.142929
vt 0.285757 0.142929
vt 0.428586 0.142929
vt 0.571414 0.142929
vt 0.714243 0.142929
vt 0.142929 0.000100
vt 0.000100 0.000100
vt 0.285757 0.000100
vt 0.428586 0.000100
vt 0.571414 0.000100
vt 0.714243 0.000100
vt 0.000100 0.999900
vt 1.153115 1.237982
vt 1.261629 -0.237982
vt 1.261629 1.237982
vt 0.857072 0.999900
vt 0.999900 0.000100
vt 0.999900 0.999900
vt 0.714243 0.999900
vt 0.857071 0.000100
vt 0.571414 0.999900
vt 0.714243 0.000100
vt 0.428586 0.999900
vt 0.571414 0.000100
vt 0.285757 0.999900
vt 0.428586 0.000100
vt 0.285757 0.000100
vt 0.000100 0.000100
vt 0.000100 0.142929
vt 0.000100 0.285757
vt 0.000100 0.428586
vt 0.000100 0.571414
vt 0.000100 0.714243
vt -0.040531 -0.237982
vt 0.067982 1.237982
vt 0.067982 -0.237982
vt 0.176495 -0.237982
vt 0.176495 1.237982
vt 0.285009 1.237982
vt 0.285009 -0.237982
vt 0.393522 -0.237982
vt 0.393522 1.237982
vt 0.502035 1.237982
vt 0.502035 -0.237982
vt 0.610549 -0.237982
vt 0.610549 1.237982
vt 0.719062 1.237982
vt 0.719062 -0.237982
vt 0.827575 -0.237982
vt 0.827575 1.237982
vt 0.936089 1.237982
vt 0.936089 -0.237982
vt 1.044602 -0.237982
vt 1.044602 1.237982
vt 1.153115 -0.237982
vt -0.257558 -0.237982
vt 0.000100 0.999900
vt 0.000100 0.000100
vt 0.000100 0.999900
vt 0.999900 0.142929
vt 0.285757 0.857071
vt 0.428586 0.714243
vt 0.714243 0.428586
vt 0.857071 0.285757
vt 0.142929 0.999900
vt -0.040531 1.237982
s 0
usemtl Material
f 3/1/1 13/2/1 20/3/1
f 13/4/2 27/5/2 81/6/2
f 5/7/3 29/8/3 27/9/3
f 1/10/4 19/11/4 7/12/4
f 3/13/5 35/14/5 29/15/5
f 12/16/4 6/17/4 4/18/4
f 11/19/4 14/20/4 12/16/4
f 10/21/4 15/22/4 11/19/4
f 9/23/4 16/24/4 10/21/4
f 8/25/4 17/26/4 9/23/4
f 7/12/4 18/27/4 8/25/4
f 80/28/2 14/29/2 15/30/2
f 79/31/2 86/32/2 80/28/2
f 78/33/2 85/34/2 79/31/2
f 77/35/2 84/36/2 78/33/2
f 76/37/2 83/38/2 77/35/2
f 75/39/2 82/40/2 76/37/2
f 74/41/2 15/30/2 16/42/2
f 73/43/2 80/28/2 74/41/2
f 72/44/2 79/31/2 73/43/2
f 71/45/2 78/33/2 72/44/2
f 70/46/2 77/35/2 71/45/2
f 69/47/2 16/42/2 17/48/2
f 68/49/2 74/41/2 69/47/2
f 67/50/2 73/43/2 68/49/2
f 66/51/2 72/44/2 67/50/2
f 65/52/2 17/48/2 18/53/2
f 64/54/2 69/47/2 65/52/2
f 63/55/2 68/49/2 64/54/2
f 62/56/2 18/53/2 19/57/2
f 61/58/2 65/52/2 62/56/2
f 28/59/2 19/57/2 2/60/2
f 58/40/5 7/61/5 8/62/5
f 57/63/5 60/64/5 58/40/5
f 55/65/5 8/62/5 9/66/5
f 54/67/5 58/40/5 55/65/5
f 53/68/5 57/63/5 54/67/5
f 51/69/5 9/66/5 10/70/5
f 50/33/5 55/65/5 51/69/5
f 49/71/5 54/67/5 50/33/5
f 48/72/5 53/68/5 49/71/5
f 46/34/5 10/70/5 11/73/5
f 45/74/5 51/69/5 46/34/5
f 44/75/5 50/33/5 45/74/5
f 43/76/5 49/71/5 44/75/5
f 42/77/5 48/72/5 43/76/5
f 40/78/5 11/73/5 12/79/5
f 39/80/5 46/34/5 40/78/5
f 38/81/5 45/74/5 39/80/5
f 37/82/5 44/75/5 38/81/5
f 36/83/5 43/76/5 37/82/5
f 35/14/5 42/77/5 36/83/5
f 34/84/5 12/79/5 4/85/5
f 33/86/5 40/78/5 34/84/5
f 32/87/5 39/80/5 33/86/5
f 31/88/5 38/81/5 32/87/5
f 30/89/5 37/82/5 31/88/5
f 29/15/5 36/83/5 30/89/5
f 60/64/5 1/90/5 7/61/5
f 21/91/6 2/92/6 1/93/6
f 22/94/3 4/95/3 6/96/3
f 23/97/3 34/98/3 22/94/3
f 24/99/3 33/100/3 23/97/3
f 25/101/3 32/102/3 24/99/3
f 26/103/3 31/104/3 25/101/3
f 27/9/3 30/105/3 26/103/3
f 86/32/2 6/106/2 14/29/2
f 85/34/2 22/107/2 86/32/2
f 84/36/2 23/108/2 85/34/2
f 83/38/2 24/109/2 84/36/2
f 82/40/2 25/110/2 83/38/2
f 81/6/2 26/111/2 82/40/2
f 81/112/6 20/3/6 13/2/6
f 41/113/1 81/112/1 75/114/1
f 41/113/6 76/115/6 42/116/6
f 47/117/1 76/115/1 70/118/1
f 47/117/6 71/119/6 48/120/6
f 52/121/1 71/119/1 66/122/1
f 52/121/6 67/123/6 53/124/6
f 56/125/1 67/123/1 63/126/1
f 56/125/6 64/127/6 57/128/6
f 59/129/1 64/127/1 61/130/1
f 59/129/6 62/131/6 60/132/6
f 21/91/1 62/131/1 28/133/1
f 3/1/1 5/134/1 13/2/1
f 13/4/2 5/135/2 27/5/2
f 5/7/3 3/136/3 29/8/3
f 1/10/4 2/137/4 19/11/4
f 3/13/5 20/138/5 35/14/5
f 12/16/4 14/20/4 6/17/4
f 11/19/4 15/22/4 14/20/4
f 10/21/4 16/24/4 15/22/4
f 9/23/4 17/26/4 16/24/4
f 8/25/4 18/27/4 17/26/4
f 7/12/4 19/11/4 18/27/4
f 80/28/2 86/32/2 14/29/2
f 79/31/2 85/34/2 86/32/2
f 78/33/2 84/36/2 85/34/2
f 77/35/2 83/38/2 84/36/2
f 76/37/2 82/40/2 83/38/2
f 75/39/2 81/6/2 82/40/2
f 74/41/2 80/28/2 15/30/2
f 73/43/2 79/31/2 80/28/2
f 72/44/2 78/33/2 79/31/2
f 71/45/2 77/35/2 78/33/2
f 70/46/2 76/37/2 77/35/2
f 69/47/2 74/41/2 16/42/2
f 68/49/2 73/43/2 74/41/2
f 67/50/2 72/44/2 73/43/2
f 66/51/2 71/45/2 72/44/2
f 65/52/2 69/47/2 17/48/2
f 64/54/2 68/49/2 69/47/2
f 63/55/2 67/50/2 68/49/2
f 62/56/2 65/52/2 18/53/2
f 61/58/2 64/54/2 65/52/2
f 28/59/2 62/56/2 19/57/2
f 58/40/5 60/64/5 7/61/5
f 57/63/5 59/139/5 60/64/5
f 55/65/5 58/40/5 8/62/5
f 54/67/5 57/63/5 58/40/5
f 53/68/5 56/140/5 57/63/5
f 51/69/5 55/65/5 9/66/5
f 50/33/5 54/67/5 55/65/5
f 49/71/5 53/68/5 54/67/5
f 48/72/5 52/51/5 53/68/5
f 46/34/5 51/69/5 10/70/5
f 45/74/5 50/33/5 51/69/5
f 44/75/5 49/71/5 50/33/5
f 43/76/5 48/72/5 49/71/5
f 42/77/5 47/141/5 48/72/5
f 40/78/5 46/34/5 11/73/5
f 39/80/5 45/74/5 46/34/5
f 38/81/5 44/75/5 45/74/5
f 37/82/5 43/76/5 44/75/5
f 36/83/5 42/77/5 43/76/5
f 35/14/5 41/142/5 42/77/5
f 34/84/5 40/78/5 12/79/5
f 33/86/5 39/80/5 40/78/5
f 32/87/5 38/81/5 39/80/5
f 31/88/5 37/82/5 38/81/5
f 30/89/5 36/83/5 37/82/5
f 29/15/5 35/14/5 36/83/5
f 60/64/5 21/143/5 1/90/5
f 21/91/6 28/133/6 2/92/6
f 22/94/3 34/98/3 4/95/3
f 23/97/3 33/100/3 34/98/3
f 24/99/3 32/102/3 33/100/3
f 25/101/3 31/104/3 32/102/3
f 26/103/3 30/105/3 31/104/3
f 27/9/3 29/8/3 30/105/3
f 86/32/2 22/107/2 6/106/2
f 85/34/2 23/108/2 22/107/2
f 84/36/2 24/109/2 23/108/2
f 83/38/2 25/110/2 24/109/2
f 82/40/2 26/111/2 25/110/2
f 81/6/2 27/5/2 26/111/2
f 81/112/6 35/144/6 20/3/6
f 41/113/1 35/144/1 81/112/1
f 41/113/6 75/114/6 76/115/6
f 47/117/1 42/116/1 76/115/1
f 47/117/6 70/118/6 71/119/6
f 52/121/1 48/120/1 71/119/1
f 52/121/6 66/122/6 67/123/6
f 56/125/1 53/124/1 67/123/1
f 56/125/6 63/126/6 64/127/6
f 59/129/1 57/128/1 64/127/1
f 59/129/6 61/130/6 62/131/6
f 21/91/1 60/132/1 62/131/1
