# Blender 5.1.2
# www.blender.org
mtllib CatWall.mtl
o Cube.001
v -0.306431 15.784386 10.460405
v -0.306431 26.921749 10.460405
v -0.306431 15.784386 -10.460405
v -0.306431 26.921749 -10.460405
v 0.306431 15.784386 10.460405
v 0.306431 26.921749 10.460405
v 0.306431 15.784386 -10.460405
v 0.306431 26.921749 -10.460405
v -0.306431 26.911253 10.460405
v -0.306431 38.048615 10.460405
v -0.306431 26.911253 -10.460405
v -0.306431 38.048615 -10.460405
v 0.306431 26.911253 10.460405
v 0.306431 38.048615 10.460405
v 0.306431 26.911253 -10.460405
v 0.306431 38.048615 -10.460405
v -0.306431 15.784386 -10.232718
v -0.306431 26.921749 -10.232718
v -0.306431 15.784386 -31.153528
v -0.306431 26.921749 -31.153528
v 0.306431 15.784386 -10.232718
v 0.306431 26.921749 -10.232718
v 0.306431 15.784386 -31.153528
v 0.306431 26.921749 -31.153528
v -0.306431 26.911253 -10.232718
v -0.306431 38.048615 -10.232718
v -0.306431 26.911253 -31.153528
v -0.306431 38.048615 -31.153528
v 0.306431 26.911253 -10.232718
v 0.306431 38.048615 -10.232718
v 0.306431 26.911253 -31.153528
v 0.306431 38.048615 -31.153528
v -0.306431 15.784386 -31.120468
v -0.306431 26.921749 -31.120468
v -0.306431 15.784386 -52.041283
v -0.306431 26.921749 -52.041283
v 0.306431 15.784386 -31.120468
v 0.306431 26.921749 -31.120468
v 0.306431 15.784386 -52.041283
v 0.306431 26.921749 -52.041283
v -0.306431 26.911253 -31.120468
v -0.306431 38.048615 -31.120468
v -0.306431 26.911253 -52.041283
v -0.306431 38.048615 -52.041283
v 0.306431 26.911253 -31.120468
v 0.306431 38.048615 -31.120468
v 0.306431 26.911253 -52.041283
v 0.306431 38.048615 -52.041283
v -0.306431 15.784386 -51.813595
v -0.306431 26.921749 -51.813595
v -0.306431 15.784386 -72.734406
v -0.306431 26.921749 -72.734406
v 0.306431 15.784386 -51.813595
v 0.306431 26.921749 -51.813595
v 0.306431 15.784386 -72.734406
v 0.306431 26.921749 -72.734406
v -0.306431 26.911253 -51.813595
v -0.306431 38.048615 -51.813595
v -0.306431 26.911253 -72.734406
v -0.306431 38.048615 -72.734406
v 0.306431 26.911253 -51.813595
v 0.306431 38.048615 -51.813595
v 0.306431 26.911253 -72.734406
v 0.306431 38.048615 -72.734406
v -0.306431 -5.568682 10.460405
v -0.306431 5.568681 10.460405
v -0.306431 -5.568682 -10.460405
v -0.306431 5.568681 -10.460405
v 0.306431 -5.568682 10.460405
v 0.306431 5.568681 10.460405
v 0.306431 -5.568682 -10.460405
v 0.306431 5.568681 -10.460405
v -0.306431 5.558186 10.460405
v -0.306431 16.695549 10.460405
v -0.306431 5.558186 -10.460405
v -0.306431 16.695549 -10.460405
v 0.306431 5.558186 10.460405
v 0.306431 16.695549 10.460405
v 0.306431 5.558186 -10.460405
v 0.306431 16.695549 -10.460405
v -0.306431 -5.568682 -10.232718
v -0.306431 5.568681 -10.232718
v -0.306431 -5.568682 -31.153528
v -0.306431 5.568681 -31.153528
v 0.306431 -5.568682 -10.232718
v 0.306431 5.568681 -10.232718
v 0.306431 -5.568682 -31.153528
v 0.306431 5.568681 -31.153528
v -0.306431 5.558186 -10.232718
v -0.306431 16.695549 -10.232718
v -0.306431 5.558186 -31.153528
v -0.306431 16.695549 -31.153528
v 0.306431 5.558186 -10.232718
v 0.306431 16.695549 -10.232718
v 0.306431 5.558186 -31.153528
v 0.306431 16.695549 -31.153528
v -0.306431 -5.568682 -31.120468
v -0.306431 5.568681 -31.120468
v -0.306431 -5.568682 -52.041283
v -0.306431 5.568681 -52.041283
v 0.306431 -5.568682 -31.120468
v 0.306431 5.568681 -31.120468
v 0.306431 -5.568682 -52.041283
v 0.306431 5.568681 -52.041283
v -0.306431 5.558186 -31.120468
v -0.306431 16.695549 -31.120468
v -0.306431 5.558186 -52.041283
v -0.306431 16.695549 -52.041283
v 0.306431 5.558186 -31.120468
v 0.306431 16.695549 -31.120468
v 0.306431 5.558186 -52.041283
v 0.306431 16.695549 -52.041283
v -0.306431 -5.568682 -51.813595
v -0.306431 5.568681 -51.813595
v -0.306431 -5.568682 -72.734406
v -0.306431 5.568681 -72.734406
v 0.306431 -5.568682 -51.813595
v 0.306431 5.568681 -51.813595
v 0.306431 -5.568682 -72.734406
v 0.306431 5.568681 -72.734406
v -0.306431 5.558186 -51.813595
v -0.306431 16.695549 -51.813595
v -0.306431 5.558186 -72.734406
v -0.306431 16.695549 -72.734406
v 0.306431 5.558186 -51.813595
v 0.306431 16.695549 -51.813595
v 0.306431 5.558186 -72.734406
v 0.306431 16.695549 -72.734406
vn -0.0000 -1.0000 -0.0000
vn -0.0000 -0.0000 -1.0000
vn 1.0000 -0.0000 -0.0000
vn -0.0000 1.0000 -0.0000
vn -1.0000 -0.0000 -0.0000
vn -0.0000 -0.0000 1.0000
vt 0.767687 0.500000
vt 0.589229 0.678458
vt 0.589229 0.500000
vt 0.410771 0.856916
vt 0.410771 0.678458
vt 0.391311 0.544772
vt 0.979318 0.914946
vt 0.391311 0.914946
vt 0.410771 0.500000
vt 0.232313 0.678458
vt 0.232313 0.500000
vt 0.589229 0.321542
vt 0.410771 0.321542
vt 0.767687 0.678458
vt 0.589229 0.856916
vt 0.979318 0.544772
s 0
usemtl Material
f 5/1/1 1/3/1 3/2/1
f 3/2/2 4/5/2 8/4/2
f 7/6/3 8/8/3 6/7/3
f 2/9/4 6/11/4 8/10/4
f 1/3/5 2/9/5 4/5/5
f 5/12/6 6/13/6 2/9/6
f 13/1/1 9/3/1 11/2/1
f 11/2/2 12/5/2 16/4/2
f 15/6/3 16/8/3 14/7/3
f 10/9/4 14/11/4 16/10/4
f 9/3/5 10/9/5 12/5/5
f 13/12/6 14/13/6 10/9/6
f 21/1/1 17/3/1 19/2/1
f 19/2/2 20/5/2 24/4/2
f 23/6/3 24/8/3 22/7/3
f 18/9/4 22/11/4 24/10/4
f 17/3/5 18/9/5 20/5/5
f 21/12/6 22/13/6 18/9/6
f 29/1/1 25/3/1 27/2/1
f 27/2/2 28/5/2 32/4/2
f 31/6/3 32/8/3 30/7/3
f 26/9/4 30/11/4 32/10/4
f 25/3/5 26/9/5 28/5/5
f 29/12/6 30/13/6 26/9/6
f 37/1/1 33/3/1 35/2/1
f 35/2/2 36/5/2 40/4/2
f 39/6/3 40/8/3 38/7/3
f 34/9/4 38/11/4 40/10/4
f 33/3/5 34/9/5 36/5/5
f 37/12/6 38/13/6 34/9/6
f 45/1/1 41/3/1 43/2/1
f 43/2/2 44/5/2 48/4/2
f 47/6/3 48/8/3 46/7/3
f 42/9/4 46/11/4 48/10/4
f 41/3/5 42/9/5 44/5/5
f 45/12/6 46/13/6 42/9/6
f 53/1/1 49/3/1 51/2/1
f 51/2/2 52/5/2 56/4/2
f 55/6/3 56/8/3 54/7/3
f 50/9/4 54/11/4 56/10/4
f 49/3/5 50/9/5 52/5/5
f 53/12/6 54/13/6 50/9/6
f 61/1/1 57/3/1 59/2/1
f 59/2/2 60/5/2 64/4/2
f 63/6/3 64/8/3 62/7/3
f 58/9/4 62/11/4 64/10/4
f 57/3/5 58/9/5 60/5/5
f 61/12/6 62/13/6 58/9/6
f 69/1/1 65/3/1 67/2/1
f 67/2/2 68/5/2 72/4/2
f 71/6/3 72/8/3 70/7/3
f 66/9/4 70/11/4 72/10/4
f 65/3/5 66/9/5 68/5/5
f 69/12/6 70/13/6 66/9/6
f 77/1/1 73/3/1 75/2/1
f 75/2/2 76/5/2 80/4/2
f 79/6/3 80/8/3 78/7/3
f 74/9/4 78/11/4 80/10/4
f 73/3/5 74/9/5 76/5/5
f 77/12/6 78/13/6 74/9/6
f 85/1/1 81/3/1 83/2/1
f 83/2/2 84/5/2 88/4/2
f 87/6/3 88/8/3 86/7/3
f 82/9/4 86/11/4 88/10/4
f 81/3/5 82/9/5 84/5/5
f 85/12/6 86/13/6 82/9/6
f 93/1/1 89/3/1 91/2/1
f 91/2/2 92/5/2 96/4/2
f 95/6/3 96/8/3 94/7/3
f 90/9/4 94/11/4 96/10/4
f 89/3/5 90/9/5 92/5/5
f 93/12/6 94/13/6 90/9/6
f 101/1/1 97/3/1 99/2/1
f 99/2/2 100/5/2 104/4/2
f 103/6/3 104/8/3 102/7/3
f 98/9/4 102/11/4 104/10/4
f 97/3/5 98/9/5 100/5/5
f 101/12/6 102/13/6 98/9/6
f 109/1/1 105/3/1 107/2/1
f 107/2/2 108/5/2 112/4/2
f 111/6/3 112/8/3 110/7/3
f 106/9/4 110/11/4 112/10/4
f 105/3/5 106/9/5 108/5/5
f 109/12/6 110/13/6 106/9/6
f 117/1/1 113/3/1 115/2/1
f 115/2/2 116/5/2 120/4/2
f 119/6/3 120/8/3 118/7/3
f 114/9/4 118/11/4 120/10/4
f 113/3/5 114/9/5 116/5/5
f 117/12/6 118/13/6 114/9/6
f 125/1/1 121/3/1 123/2/1
f 123/2/2 124/5/2 128/4/2
f 127/6/3 128/8/3 126/7/3
f 122/9/4 126/11/4 128/10/4
f 121/3/5 122/9/5 124/5/5
f 125/12/6 126/13/6 122/9/6
f 5/1/1 3/2/1 7/14/1
f 3/2/2 8/4/2 7/15/2
f 7/6/3 6/7/3 5/16/3
f 2/9/4 8/10/4 4/5/4
f 1/3/5 4/5/5 3/2/5
f 5/12/6 2/9/6 1/3/6
f 13/1/1 11/2/1 15/14/1
f 11/2/2 16/4/2 15/15/2
f 15/6/3 14/7/3 13/16/3
f 10/9/4 16/10/4 12/5/4
f 9/3/5 12/5/5 11/2/5
f 13/12/6 10/9/6 9/3/6
f 21/1/1 19/2/1 23/14/1
f 19/2/2 24/4/2 23/15/2
f 23/6/3 22/7/3 21/16/3
f 18/9/4 24/10/4 20/5/4
f 17/3/5 20/5/5 19/2/5
f 21/12/6 18/9/6 17/3/6
f 29/1/1 27/2/1 31/14/1
f 27/2/2 32/4/2 31/15/2
f 31/6/3 30/7/3 29/16/3
f 26/9/4 32/10/4 28/5/4
f 25/3/5 28/5/5 27/2/5
f 29/12/6 26/9/6 25/3/6
f 37/1/1 35/2/1 39/14/1
f 35/2/2 40/4/2 39/15/2
f 39/6/3 38/7/3 37/16/3
f 34/9/4 40/10/4 36/5/4
f 33/3/5 36/5/5 35/2/5
f 37/12/6 34/9/6 33/3/6
f 45/1/1 43/2/1 47/14/1
f 43/2/2 48/4/2 47/15/2
f 47/6/3 46/7/3 45/16/3
f 42/9/4 48/10/4 44/5/4
f 41/3/5 44/5/5 43/2/5
f 45/12/6 42/9/6 41/3/6
f 53/1/1 51/2/1 55/14/1
f 51/2/2 56/4/2 55/15/2
f 55/6/3 54/7/3 53/16/3
f 50/9/4 56/10/4 52/5/4
f 49/3/5 52/5/5 51/2/5
f 53/12/6 50/9/6 49/3/6
f 61/1/1 59/2/1 63/14/1
f 59/2/2 64/4/2 63/15/2
f 63/6/3 62/7/3 61/16/3
f 58/9/4 64/10/4 60/5/4
f 57/3/5 60/5/5 59/2/5
f 61/12/6 58/9/6 57/3/6
f 69/1/1 67/2/1 71/14/1
f 67/2/2 72/4/2 71/15/2
f 71/6/3 70/7/3 69/16/3
f 66/9/4 72/10/4 68/5/4
f 65/3/5 68/5/5 67/2/5
f 69/12/6 66/9/6 65/3/6
f 77/1/1 75/2/1 79/14/1
f 75/2/2 80/4/2 79/15/2
f 79/6/3 78/7/3 77/16/3
f 74/9/4 80/10/4 76/5/4
f 73/3/5 76/5/5 75/2/5
f 77/12/6 74/9/6 73/3/6
f 85/1/1 83/2/1 87/14/1
f 83/2/2 88/4/2 87/15/2
f 87/6/3 86/7/3 85/16/3
f 82/9/4 88/10/4 84/5/4
f 81/3/5 84/5/5 83/2/5
f 85/12/6 82/9/6 81/3/6
f 93/1/1 91/2/1 95/14/1
f 91/2/2 96/4/2 95/15/2
f 95/6/3 94/7/3 93/16/3
f 90/9/4 96/10/4 92/5/4
f 89/3/5 92/5/5 91/2/5
f 93/12/6 90/9/6 89/3/6
f 101/1/1 99/2/1 103/14/1
f 99/2/2 104/4/2 103/15/2
f 103/6/3 102/7/3 101/16/3
f 98/9/4 104/10/4 100/5/4
f 97/3/5 100/5/5 99/2/5
f 101/12/6 98/9/6 97/3/6
f 109/1/1 107/2/1 111/14/1
f 107/2/2 112/4/2 111/15/2
f 111/6/3 110/7/3 109/16/3
f 106/9/4 112/10/4 108/5/4
f 105/3/5 108/5/5 107/2/5
f 109/12/6 106/9/6 105/3/6
f 117/1/1 115/2/1 119/14/1
f 115/2/2 120/4/2 119/15/2
f 119/6/3 118/7/3 117/16/3
f 114/9/4 120/10/4 116/5/4
f 113/3/5 116/5/5 115/2/5
f 117/12/6 114/9/6 113/3/6
f 125/1/1 123/2/1 127/14/1
f 123/2/2 128/4/2 127/15/2
f 127/6/3 126/7/3 125/16/3
f 122/9/4 128/10/4 124/5/4
f 121/3/5 124/5/5 123/2/5
f 125/12/6 122/9/6 121/3/6
