# Blender 5.1.2
# www.blender.org
mtllib CharlieChurchCollumnEnd.mtl
o Cylinder
v 0.000000 -2.340940 -1.000000
v -0.000000 0.067731 -1.315746
v 0.500000 -2.340940 -0.866025
v 0.657873 0.067731 -1.139470
v 0.866025 -2.340940 -0.500000
v 1.139470 0.067731 -0.657873
v 1.000000 -2.340940 0.000000
v 1.315746 0.067731 -0.000000
v 0.866025 -2.340940 0.500000
v 1.139470 0.067731 0.657873
v 0.500000 -2.340940 0.866025
v 0.657873 0.067731 1.139470
v 0.000000 -2.340940 1.000000
v -0.000000 0.067731 1.315746
v -0.500000 -2.340940 0.866025
v -0.657873 0.067731 1.139470
v -0.866025 -2.340940 0.500000
v -1.139470 0.067731 0.657873
v -1.000000 -2.340940 0.000000
v -1.315746 0.067731 -0.000000
v -0.866025 -2.340940 -0.500000
v -1.139470 0.067731 -0.657873
v -0.500000 -2.340940 -0.866025
v -0.657873 0.067731 -1.139470
v -0.000000 -0.854577 -1.071789
v 0.535894 -0.854577 -0.928196
v 0.928196 -0.854577 -0.535894
v 1.071789 -0.854577 -0.000000
v 0.928196 -0.854577 0.535894
v 0.535894 -0.854577 0.928196
v -0.000000 -0.854577 1.071789
v -0.535894 -0.854577 0.928196
v -0.928196 -0.854577 0.535894
v -1.071789 -0.854577 -0.000000
v -0.928196 -0.854577 -0.535894
v -0.535894 -0.854577 -0.928196
v -0.000000 -0.393423 -1.132177
v 0.566089 -0.393423 -0.980494
v 0.980494 -0.393423 -0.566089
v 1.132177 -0.393423 -0.000000
v 0.980494 -0.393423 0.566089
v 0.566089 -0.393423 0.980494
v -0.000000 -0.393423 1.132177
v -0.566089 -0.393423 0.980494
v -0.980494 -0.393423 0.566089
v -1.132177 -0.393423 -0.000000
v -0.980494 -0.393423 -0.566089
v -0.566089 -0.393423 -0.980494
v 0.500000 -0.934793 -0.866025
v 0.866025 -0.934793 -0.500000
v 1.000000 -0.934793 0.000000
v 0.866025 -0.934793 0.500000
v 0.500000 -0.934793 0.866025
v 0.000000 -0.934793 1.000000
v -0.500000 -0.934793 0.866025
v -0.866025 -0.934793 0.500000
v -1.000000 -0.934793 0.000000
v -0.866025 -0.934793 -0.500000
v -0.500000 -0.934793 -0.866025
v 0.000000 -0.934793 -1.000000
v -0.000000 -0.247982 -1.306423
v 0.653212 -0.247982 -1.131395
v 1.131395 -0.247982 -0.653212
v 1.306423 -0.247982 0.000000
v 1.131395 -0.247982 0.653212
v 0.653212 -0.247982 1.131395
v -0.000000 -0.247982 1.306423
v -0.653212 -0.247982 1.131395
v -1.131395 -0.247982 0.653212
v -1.306423 -0.247982 0.000000
v -1.131395 -0.247982 -0.653212
v -0.653212 -0.247982 -1.131395
vn 0.2587 -0.0285 -0.9655
vn 0.7068 -0.0285 -0.7068
vn 0.9655 -0.0285 -0.2587
vn 0.9655 -0.0285 0.2587
vn 0.7068 -0.0285 0.7068
vn 0.2587 -0.0285 0.9655
vn -0.2587 -0.0285 0.9655
vn -0.7068 -0.0285 0.7068
vn -0.9655 -0.0285 0.2587
vn -0.9655 -0.0285 -0.2587
vn -0.0000 1.0000 -0.0000
vn -0.7068 -0.0285 -0.7068
vn -0.2587 -0.0285 -0.9655
vn -0.0000 -1.0000 -0.0000
vn -0.1958 -0.6540 -0.7307
vn -0.5349 -0.6540 -0.5349
vn -0.7307 -0.6540 -0.1958
vn -0.7307 -0.6540 0.1958
vn -0.5349 -0.6540 0.5349
vn -0.1958 -0.6540 0.7307
vn 0.1958 -0.6540 0.7307
vn 0.5349 -0.6540 0.5349
vn 0.7307 -0.6540 0.1958
vn 0.7307 -0.6540 -0.1958
vn 0.5349 -0.6540 -0.5349
vn 0.1958 -0.6540 -0.7307
vn -0.2568 -0.1255 -0.9583
vn -0.7015 -0.1255 -0.7015
vn -0.9583 -0.1255 -0.2568
vn -0.9583 -0.1255 0.2568
vn -0.7015 -0.1255 0.7015
vn -0.2568 -0.1255 0.9583
vn 0.2568 -0.1255 0.9583
vn 0.7015 -0.1255 0.7015
vn 0.9583 -0.1255 0.2568
vn 0.9583 -0.1255 -0.2568
vn 0.7015 -0.1255 -0.7015
vn 0.2568 -0.1255 -0.9583
vn 0.2588 -0.0000 -0.9659
vn 0.7071 -0.0000 -0.7071
vn 0.9659 -0.0000 -0.2588
vn 0.9659 -0.0000 0.2588
vn 0.7071 -0.0000 0.7071
vn 0.2588 -0.0000 0.9659
vn -0.2588 -0.0000 0.9659
vn -0.7071 -0.0000 0.7071
vn -0.9659 -0.0000 0.2588
vn -0.9659 -0.0000 -0.2588
vn -0.7071 -0.0000 -0.7071
vn -0.2588 -0.0000 -0.9659
vn -0.1692 -0.7566 -0.6316
vn -0.4623 -0.7566 -0.4623
vn -0.6316 -0.7566 -0.1692
vn -0.6316 -0.7566 0.1692
vn -0.4623 -0.7566 0.4623
vn -0.1692 -0.7566 0.6316
vn 0.1692 -0.7566 0.6316
vn 0.4623 -0.7566 0.4623
vn 0.6316 -0.7566 0.1692
vn 0.6316 -0.7566 -0.1692
vn 0.4623 -0.7566 -0.4623
vn 0.1692 -0.7566 -0.6316
vt 0.349814 0.963093
vt 0.348518 0.996521
vt 0.319885 0.996521
vt 0.319885 0.963093
vt 0.291252 0.996521
vt 0.291252 0.963093
vt 0.262618 0.996521
vt 0.262618 0.963093
vt 0.233985 0.996521
vt 0.233985 0.963093
vt 0.205351 0.996521
vt 0.205351 0.963093
vt 0.176718 0.996521
vt 0.175422 0.963093
vt 0.836189 0.962522
vt 0.834970 0.995104
vt 0.808026 0.995104
vt 0.808026 0.962522
vt 0.781082 0.995104
vt 0.781082 0.962522
vt 0.754139 0.995104
vt 0.754139 0.962522
vt 0.727195 0.995104
vt 0.727195 0.962522
vt 0.370000 0.457846
vt 0.250000 0.490000
vt 0.130000 0.457846
vt 0.042154 0.370000
vt 0.010000 0.250000
vt 0.042154 0.130000
vt 0.130000 0.042154
vt 0.250000 0.010000
vt 0.370000 0.042154
vt 0.457846 0.130000
vt 0.490000 0.250000
vt 0.457846 0.370000
vt 0.700251 0.995104
vt 0.700251 0.962522
vt 0.673308 0.995104
vt 0.672089 0.962522
vt 0.750000 0.490000
vt 0.870000 0.457846
vt 0.957846 0.370000
vt 0.990000 0.250000
vt 0.957846 0.130000
vt 0.870000 0.042154
vt 0.750000 0.010000
vt 0.630000 0.042154
vt 0.542154 0.130000
vt 0.510000 0.250000
vt 0.542154 0.370000
vt 0.630000 0.457846
vt 0.700251 0.891643
vt 0.700251 0.899922
vt 0.673308 0.899922
vt 0.673308 0.891643
vt 0.727195 0.891643
vt 0.727195 0.899922
vt 0.754139 0.891643
vt 0.754139 0.899922
vt 0.781082 0.891643
vt 0.781082 0.899922
vt 0.808026 0.891643
vt 0.808026 0.899922
vt 0.834970 0.891643
vt 0.834970 0.899922
vt 0.205351 0.890372
vt 0.205351 0.898866
vt 0.176718 0.898866
vt 0.176718 0.890372
vt 0.233985 0.890372
vt 0.233985 0.898866
vt 0.262618 0.890372
vt 0.262618 0.898866
vt 0.291252 0.890372
vt 0.291252 0.898866
vt 0.319885 0.890372
vt 0.319885 0.898866
vt 0.348518 0.890372
vt 0.348518 0.898866
vt 0.700251 0.947513
vt 0.671527 0.947513
vt 0.727195 0.947513
vt 0.754139 0.947513
vt 0.781082 0.947513
vt 0.808026 0.947513
vt 0.836750 0.947513
vt 0.205351 0.947693
vt 0.174826 0.947693
vt 0.233985 0.947693
vt 0.262618 0.947693
vt 0.291252 0.947693
vt 0.319885 0.947693
vt 0.350411 0.947693
vt 0.345998 0.118029
vt 0.317365 0.118029
vt 0.288732 0.118029
vt 0.260098 0.118029
vt 0.231465 0.118029
vt 0.202832 0.118029
vt 0.174198 0.118029
vt 0.832450 0.133442
vt 0.805506 0.133442
vt 0.778562 0.133442
vt 0.751619 0.133442
vt 0.724675 0.133442
vt 0.697731 0.133442
vt 0.670788 0.133442
s 0
usemtl Material.001
f 61/1/1 2/2/1 4/3/1 62/4/1
f 62/4/2 4/3/2 6/5/2 63/6/2
f 63/6/3 6/5/3 8/7/3 64/8/3
f 64/8/4 8/7/4 10/9/4 65/10/4
f 65/10/5 10/9/5 12/11/5 66/12/5
f 66/12/6 12/11/6 14/13/6 67/14/6
f 67/15/7 14/16/7 16/17/7 68/18/7
f 68/18/8 16/17/8 18/19/8 69/20/8
f 69/20/9 18/19/9 20/21/9 70/22/9
f 70/22/10 20/21/10 22/23/10 71/24/10
f 4/25/11 2/26/11 24/27/11 22/28/11 20/29/11 18/30/11 16/31/11 14/32/11 12/33/11 10/34/11 8/35/11 6/36/11
f 71/24/12 22/23/12 24/37/12 72/38/12
f 72/38/13 24/37/13 2/39/13 61/40/13
f 1/41/14 3/42/14 5/43/14 7/44/14 9/45/14 11/46/14 13/47/14 15/48/14 17/49/14 19/50/14 21/51/14 23/52/14
f 59/53/15 36/54/15 25/55/15 60/56/15
f 58/57/16 35/58/16 36/54/16 59/53/16
f 57/59/17 34/60/17 35/58/17 58/57/17
f 56/61/18 33/62/18 34/60/18 57/59/18
f 55/63/19 32/64/19 33/62/19 56/61/19
f 54/65/20 31/66/20 32/64/20 55/63/20
f 53/67/21 30/68/21 31/69/21 54/70/21
f 52/71/22 29/72/22 30/68/22 53/67/22
f 51/73/23 28/74/23 29/72/23 52/71/23
f 50/75/24 27/76/24 28/74/24 51/73/24
f 49/77/25 26/78/25 27/76/25 50/75/25
f 60/79/26 25/80/26 26/78/26 49/77/26
f 36/54/27 48/81/27 37/82/27 25/55/27
f 35/58/28 47/83/28 48/81/28 36/54/28
f 34/60/29 46/84/29 47/83/29 35/58/29
f 33/62/30 45/85/30 46/84/30 34/60/30
f 32/64/31 44/86/31 45/85/31 33/62/31
f 31/66/32 43/87/32 44/86/32 32/64/32
f 30/68/33 42/88/33 43/89/33 31/69/33
f 29/72/34 41/90/34 42/88/34 30/68/34
f 28/74/35 40/91/35 41/90/35 29/72/35
f 27/76/36 39/92/36 40/91/36 28/74/36
f 26/78/37 38/93/37 39/92/37 27/76/37
f 25/80/38 37/94/38 38/93/38 26/78/38
f 1/95/39 60/79/39 49/77/39 3/96/39
f 3/96/40 49/77/40 50/75/40 5/97/40
f 5/97/41 50/75/41 51/73/41 7/98/41
f 7/98/42 51/73/42 52/71/42 9/99/42
f 9/99/43 52/71/43 53/67/43 11/100/43
f 11/100/44 53/67/44 54/70/44 13/101/44
f 13/102/45 54/65/45 55/63/45 15/103/45
f 15/103/46 55/63/46 56/61/46 17/104/46
f 17/104/47 56/61/47 57/59/47 19/105/47
f 19/105/48 57/59/48 58/57/48 21/106/48
f 21/106/49 58/57/49 59/53/49 23/107/49
f 23/107/50 59/53/50 60/56/50 1/108/50
f 48/81/51 72/38/51 61/40/51 37/82/51
f 47/83/52 71/24/52 72/38/52 48/81/52
f 46/84/53 70/22/53 71/24/53 47/83/53
f 45/85/54 69/20/54 70/22/54 46/84/54
f 44/86/55 68/18/55 69/20/55 45/85/55
f 43/87/56 67/15/56 68/18/56 44/86/56
f 42/88/57 66/12/57 67/14/57 43/89/57
f 41/90/58 65/10/58 66/12/58 42/88/58
f 40/91/59 64/8/59 65/10/59 41/90/59
f 39/92/60 63/6/60 64/8/60 40/91/60
f 38/93/61 62/4/61 63/6/61 39/92/61
f 37/94/62 61/1/62 62/4/62 38/93/62
