# Blender 5.1.2
# www.blender.org
mtllib charliechurchseat.mtl
o Cube
v 0.564956 -0.182141 -2.001900
v 0.441323 -1.006893 -1.998614
v 0.579055 -0.226230 1.997832
v 0.440502 -0.995711 2.001370
v -0.949168 0.551411 -2.000000
v -0.644659 -1.000000 -2.000000
v -0.949168 0.551411 2.000000
v -0.644659 -1.000000 2.000000
v 0.099471 -1.000000 -2.000000
v -0.057214 -0.070775 2.013015
v 0.099471 -1.000000 2.000000
v -0.073207 -0.016010 -1.984814
v -0.448840 -1.000000 -2.000000
v -0.452618 0.623176 2.001372
v -0.448840 -1.000000 2.000000
v -0.452618 0.623176 -1.998628
v -0.644659 -1.000000 1.914878
v 0.376219 -0.224455 1.836811
v -0.949168 0.625155 1.840291
v 0.241225 -0.996161 1.840339
v 0.099471 -1.000000 1.914878
v -0.328184 -0.184037 1.852071
v -0.448840 -1.000000 1.914878
v -0.549304 0.696920 1.803360
v -0.949168 0.625155 -1.836151
v 0.241980 -1.006435 -1.834766
v -0.644659 -1.000000 -1.836151
v 0.363265 -0.183947 -1.838063
v 0.099471 -1.000000 -1.836151
v -0.342878 -0.133719 -1.821054
v -0.448840 -1.000000 -1.836151
v -0.549304 0.696920 -1.834779
vn -0.1321 0.9061 0.4019
vn -0.0000 -0.0008 1.0000
vn -0.9813 -0.1926 -0.0000
vn 0.0271 -0.9996 -0.0000
vn 0.6247 -0.1128 -0.7727
vn 0.0040 -0.0046 -1.0000
vn -0.0000 0.0154 -0.9999
vn -0.0000 -1.0000 -0.0000
vn -0.0041 0.0053 1.0000
vn 0.2225 0.9368 -0.2699
vn -0.0000 0.0008 -1.0000
vn -0.0000 -0.0140 0.9999
vn 0.4252 0.2276 -0.8760
vn 0.9699 0.2434 -0.0005
vn 0.0712 0.9974 0.0107
vn 0.9850 -0.1723 0.0007
vn -0.1767 0.9843 -0.0000
vn -0.1252 0.8750 -0.4677
vn -0.0451 -0.9990 -0.0000
vn 0.6323 -0.0902 0.7695
vn 0.2470 0.9166 0.3142
vn 0.4137 0.2644 0.8712
vn -0.9829 -0.1842 -0.0000
vn -0.1233 0.9010 0.4160
vn -0.0027 -0.0005 1.0000
vn -0.9795 -0.1835 0.0826
vn 0.0126 -0.9998 -0.0128
vn 0.6170 -0.1147 -0.7785
vn -0.0238 0.0112 -0.9997
vn 0.0380 0.0009 -0.9993
vn 0.0213 -0.0104 0.9997
vn 0.0322 0.7911 -0.6109
vn 0.0027 0.0005 -1.0000
vn -0.0310 -0.0009 0.9995
vn 0.9073 0.2075 -0.3657
vn 0.9705 0.2412 -0.0000
vn 0.0576 0.9983 0.0134
vn 0.9893 -0.1459 -0.0051
vn -0.0451 -0.9990 0.0028
vn -0.9785 -0.1873 -0.0865
vn -0.1602 0.9001 -0.4051
vn -0.0201 -0.9996 -0.0216
vn 0.6284 -0.0911 0.7726
vn 0.0693 0.7525 0.6550
vn 0.8801 0.2256 0.4178
vt 0.066205 0.547411
vt 0.038878 0.684144
vt 0.038688 0.547411
vt 0.865932 0.484411
vt 0.893062 0.009253
vt 0.858745 0.009555
vt 0.375000 0.239759
vt 0.626009 0.250000
vt 0.375000 0.250000
vt 0.375000 0.739935
vt 0.250000 0.750000
vt 0.250000 0.744680
vt 0.596324 0.024288
vt 0.620217 0.226400
vt 0.595236 0.226330
vt 0.715618 0.007230
vt 0.636509 0.278299
vt 0.630231 0.007862
vt 0.857483 0.008686
vt 0.756351 0.278591
vt 0.187500 0.750000
vt 0.187500 0.744680
vt 0.635692 0.276349
vt 0.715455 0.006155
vt 0.629004 0.008023
vt 0.598061 0.729942
vt 0.622172 0.533153
vt 0.622183 0.729942
vt 0.125000 0.750000
vt 0.125000 0.744680
vt 0.890543 0.009061
vt 0.867149 0.482427
vt 0.756232 0.278284
vt 0.093263 0.298148
vt 0.072186 0.447166
vt 0.073197 0.298105
vt 0.551223 0.299128
vt 0.096041 0.447085
vt 0.187500 0.510241
vt 0.125000 0.510241
vt 0.047786 0.533129
vt 0.047544 0.729941
vt 0.250000 0.510241
vt 0.025126 0.224726
vt 0.626009 0.000000
vt 0.375000 0.005320
vt 0.375000 0.000000
vt 0.571982 0.684144
vt 0.571792 0.547411
vt 0.594752 0.684144
vt 0.594561 0.547411
vt 0.250000 0.500000
vt 0.375000 0.510240
vt -0.000292 0.224655
vt 0.026213 0.022684
vt 0.187500 0.500000
vt 0.023253 0.533128
vt 0.023000 0.729941
vt 0.125000 0.500000
vt 0.570848 0.448284
vt 0.571640 0.299172
vt 0.626009 0.009982
vt 0.061073 0.684144
vt 0.924647 0.501829
vt 0.626009 0.239759
vt 0.375000 0.750000
vt 0.621304 0.024358
vt 0.598061 0.533152
vt 0.925881 0.498813
vt 0.550422 0.448238
vt 0.375000 0.500000
vt 0.000796 0.022613
s 0
usemtl Material
f 24/1/1 7/2/1 14/3/1
f 14/4/2 8/5/2 15/6/2
f 27/7/3 5/8/3 6/9/3
f 20/10/4 11/11/4 21/12/4
f 18/13/5 4/14/5 20/15/5
f 9/16/6 1/17/6 2/18/6
f 13/19/7 12/20/7 9/16/7
f 21/12/8 15/21/8 23/22/8
f 3/23/9 11/24/9 4/25/9
f 18/26/10 10/27/10 3/28/10
f 23/22/8 8/29/8 17/30/8
f 6/31/11 16/32/11 13/19/11
f 10/33/12 15/6/12 11/24/12
f 22/34/13 14/35/13 10/36/13
f 30/37/14 24/38/14 22/34/14
f 31/39/8 17/30/8 27/40/8
f 30/41/15 18/26/15 28/42/15
f 29/43/8 23/22/8 31/39/8
f 26/44/16 18/13/16 20/15/16
f 29/43/4 20/10/4 21/12/4
f 7/45/3 17/46/3 8/47/3
f 25/48/17 24/1/17 32/49/17
f 5/50/18 32/49/18 16/51/18
f 9/52/19 26/53/19 29/43/19
f 2/54/20 28/55/20 26/44/20
f 9/52/8 31/39/8 13/56/8
f 12/57/21 28/42/21 1/58/21
f 13/56/8 27/40/8 6/59/8
f 16/60/22 30/37/22 12/61/22
f 19/62/23 27/7/23 17/46/23
f 24/1/24 19/63/24 7/2/24
f 14/4/25 7/64/25 8/5/25
f 27/7/26 25/65/26 5/8/26
f 20/10/27 4/66/27 11/11/27
f 18/13/28 3/67/28 4/14/28
f 9/16/29 12/20/29 1/17/29
f 13/19/30 16/32/30 12/20/30
f 21/12/8 11/11/8 15/21/8
f 3/23/31 10/33/31 11/24/31
f 18/26/32 22/68/32 10/27/32
f 23/22/8 15/21/8 8/29/8
f 6/31/33 5/69/33 16/32/33
f 10/33/34 14/4/34 15/6/34
f 22/34/35 24/38/35 14/35/35
f 30/37/36 32/70/36 24/38/36
f 31/39/8 23/22/8 17/30/8
f 30/41/37 22/68/37 18/26/37
f 29/43/8 21/12/8 23/22/8
f 26/44/38 28/55/38 18/13/38
f 29/43/39 26/53/39 20/10/39
f 7/45/40 19/62/40 17/46/40
f 25/48/17 19/63/17 24/1/17
f 5/50/41 25/48/41 32/49/41
f 9/52/42 2/71/42 26/53/42
f 2/54/43 1/72/43 28/55/43
f 9/52/8 29/43/8 31/39/8
f 12/57/44 30/41/44 28/42/44
f 13/56/8 31/39/8 27/40/8
f 16/60/45 32/70/45 30/37/45
f 19/62/23 25/65/23 27/7/23
