# Blender 5.1.2
# www.blender.org
mtllib CultPlate.mtl
o Cube
v -0.015000 -0.049159 0.250000
v -0.015000 0.053854 0.250000
v -0.015000 -0.038435 -0.250000
v -0.015000 0.056730 -0.250000
v 0.015000 -0.049159 0.250000
v 0.015000 0.053854 0.250000
v 0.015000 -0.038435 -0.250000
v 0.015000 0.056730 -0.250000
v -0.015000 -0.142495 -0.119903
v -0.015000 0.150000 -0.119903
v 0.015000 -0.142495 -0.119903
v 0.015000 0.150000 -0.119903
v -0.015000 -0.150000 0.106796
v 0.015000 0.150000 0.106796
v -0.015000 0.150000 0.106796
v 0.015000 -0.150000 0.106796
v -0.015000 0.044212 0.250000
v -0.015000 0.044212 -0.250000
v 0.015000 0.044212 -0.250000
v 0.015000 0.044212 0.250000
v 0.015000 0.044212 -0.119903
v -0.015000 0.044212 -0.119903
v -0.015000 0.044212 0.106796
v 0.015000 0.044212 0.106796
v -0.015000 -0.029384 -0.250000
v 0.015000 -0.029384 -0.250000
v 0.015000 -0.029384 0.250000
v 0.015000 -0.029384 -0.119903
v -0.015000 -0.029384 -0.119903
v -0.015000 -0.029384 0.106796
v 0.015000 -0.029384 0.106796
v -0.015000 -0.029384 0.250000
v -0.015000 -0.115578 0.178398
v 0.015000 0.103215 0.178398
v -0.015000 0.103215 0.178398
v 0.015000 -0.115578 0.178398
v -0.015000 0.044212 0.178398
v 0.015000 0.044212 0.178398
v 0.015000 -0.029384 0.178398
v -0.015000 -0.029384 0.178398
v -0.015000 0.114375 -0.184951
v 0.015000 -0.087786 -0.184951
v -0.015000 -0.087786 -0.184951
v 0.015000 0.114375 -0.184951
v 0.015000 0.044212 -0.184951
v -0.015000 0.044212 -0.184951
v -0.015000 -0.029384 -0.184951
v 0.015000 -0.029384 -0.184951
v -0.015000 0.038732 0.250000
v -0.015000 0.055043 -0.250000
v 0.015000 0.055043 -0.250000
v 0.015000 0.038732 0.250000
v 0.015000 0.097106 -0.119903
v -0.015000 0.097106 -0.119903
v -0.015000 0.097106 0.106796
v 0.015000 0.097106 0.106796
v -0.015000 0.097106 0.178398
v 0.015000 0.097106 0.178398
v 0.015000 0.097106 -0.184951
v -0.015000 0.097106 -0.184951
v -0.015000 -0.025532 -0.250000
v 0.015000 -0.025532 -0.250000
v 0.015000 -0.034679 0.250000
v 0.015000 -0.089692 -0.119903
v -0.015000 -0.089692 -0.119903
v -0.015000 -0.089692 0.106796
v 0.015000 -0.089692 0.106796
v -0.015000 -0.034679 0.250000
v -0.015000 -0.089692 0.178398
v 0.015000 -0.089692 0.178398
v 0.015000 -0.089692 -0.184951
v -0.015000 -0.089692 -0.184951
vn -1.0000 -0.0000 -0.0000
vn -0.0000 -0.0000 -1.0000
vn 1.0000 -0.0000 -0.0000
vn -0.0000 -0.0000 1.0000
vn -0.0000 -0.7331 0.6801
vn -0.0000 0.8233 0.5676
vn -0.0000 0.8771 -0.4804
vn -0.0000 -0.7653 -0.6437
vn -0.0000 1.0000 -0.0000
vn -0.0000 -0.9995 -0.0331
vn -0.0000 0.8371 0.5470
vn -0.0000 -0.9013 0.4333
vn -0.0000 -0.7967 -0.6044
vn -0.0000 0.7484 -0.6632
vt 0.145753 0.641199
vt 0.019488 0.744914
vt 0.019488 0.641199
vt 0.625000 0.250000
vt 0.580922 0.500000
vt 0.580922 0.250000
vt 0.145081 0.642550
vt 0.003268 0.747866
vt 0.003268 0.642550
vt 0.625000 0.750000
vt 0.580922 1.000000
vt 0.580922 0.750000
vt 0.375000 0.714199
vt 0.125000 0.750000
vt 0.125000 0.714199
vt 0.875000 0.714199
vt 0.625000 0.714199
vt 0.875000 0.532524
vt 0.625000 0.565049
vt 0.625000 0.532524
vt 0.375000 0.532524
vt 0.125000 0.565049
vt 0.125000 0.532524
vt 0.864724 0.747865
vt 0.735890 0.642550
vt 0.864724 0.642550
vt 0.712064 0.744914
vt 0.272019 0.641199
vt 0.712064 0.641199
vt 0.851050 0.744914
vt 0.851050 0.641199
vt 0.875000 0.565049
vt 0.625000 0.678398
vt 0.375000 0.565049
vt 0.125000 0.678398
vt 0.735890 0.747865
vt 0.286895 0.642550
vt 0.735890 0.537234
vt 0.286894 0.390697
vt 0.735890 0.390697
vt 0.851050 0.537483
vt 0.712064 0.393174
vt 0.851050 0.393174
vt 0.712064 0.537483
vt 0.272019 0.393174
vt 0.864724 0.537234
vt 0.864724 0.390697
vt 0.536844 0.750000
vt 0.475513 1.000000
vt 0.475513 0.750000
vt 0.145081 0.537234
vt 0.003268 0.390698
vt 0.145081 0.390697
vt 0.536844 0.250000
vt 0.475513 0.500000
vt 0.475513 0.250000
vt 0.145753 0.537483
vt 0.019488 0.393174
vt 0.145753 0.393174
vt 0.145753 0.274920
vt 0.019488 0.274920
vt 0.425257 0.500000
vt 0.425257 0.250000
vt 0.003268 0.270619
vt 0.145081 0.270619
vt 0.425257 1.000000
vt 0.425257 0.750000
vt 0.735890 0.270619
vt 0.864724 0.270619
vt 0.272019 0.274920
vt 0.712064 0.274920
vt 0.851050 0.274920
vt 0.286894 0.270619
vt 0.990036 0.274920
vt 0.286895 0.537234
vt 0.990036 0.537483
vt 0.990036 0.393174
vt 0.990036 0.744914
vt 0.990036 0.641199
vt 0.875000 0.678398
vt 0.375000 0.678398
vt 0.145081 0.747866
vt 0.993557 0.270619
vt 0.272019 0.537483
vt 0.993557 0.537234
vt 0.993557 0.390697
vt 0.993558 0.747865
vt 0.993557 0.642550
vt 0.375000 0.500000
vt 0.125000 0.500000
vt 0.875000 0.500000
vt 0.625000 0.500000
vt 0.145753 0.744914
vt 0.536844 1.000000
vt 0.003268 0.537234
vt 0.536844 0.500000
vt 0.019488 0.537483
vt 0.272019 0.156667
vt 0.145753 0.156667
vt 0.993557 0.150541
vt 0.864723 0.150541
vt 0.145081 0.150541
vt 0.286894 0.150541
vt 0.990036 0.156667
vt 0.851050 0.156667
vt 0.735890 0.150541
vt 0.712064 0.156667
vt 0.375000 1.000000
vt 0.375000 0.750000
vt 0.003268 0.150541
vt 0.375000 0.250000
vt 0.019488 0.156667
vt 0.625000 1.000000
vt 0.875000 0.750000
vt 0.272019 0.744914
vt 0.286895 0.747865
s 0
usemtl Material
f 60/1/1 4/2/1 50/3/1
f 4/4/2 51/5/2 50/6/2
f 58/7/3 6/8/3 52/9/3
f 6/10/4 49/11/4 52/12/4
f 36/13/5 1/14/5 33/15/5
f 35/16/6 6/10/6 34/17/6
f 41/18/7 12/19/7 44/20/7
f 42/21/8 9/22/8 43/23/8
f 44/24/3 53/25/3 59/26/3
f 15/27/1 54/28/1 55/29/1
f 35/30/1 55/29/1 57/31/1
f 10/32/9 14/33/9 12/19/9
f 11/34/10 13/35/10 9/22/10
f 12/36/3 56/37/3 53/25/3
f 21/38/3 31/39/3 28/40/3
f 37/41/1 30/42/1 40/43/1
f 23/44/1 29/45/1 30/42/1
f 45/46/3 28/40/3 48/47/3
f 20/48/4 32/49/4 27/50/4
f 38/51/3 27/52/3 39/53/3
f 18/54/2 26/55/2 25/56/2
f 46/57/1 25/58/1 47/59/1
f 72/60/3 25/58/3 61/61/3
f 25/56/4 62/62/4 61/63/4
f 39/53/3 63/64/3 70/65/3
f 27/50/4 68/66/4 63/67/4
f 48/47/3 64/68/3 71/69/3
f 30/42/1 65/70/1 66/71/1
f 40/43/1 66/71/1 69/72/1
f 28/40/3 67/73/3 64/68/3
f 68/74/1 40/43/1 69/72/1
f 31/39/3 70/65/3 67/73/3
f 24/75/3 39/53/3 31/39/3
f 17/76/1 40/43/1 32/77/1
f 2/78/1 57/31/1 49/79/1
f 15/80/11 34/17/11 14/33/11
f 16/81/12 33/15/12 13/35/12
f 56/37/3 34/82/3 58/7/3
f 62/83/3 48/47/3 71/69/3
f 29/45/1 72/60/1 65/70/1
f 22/84/1 47/59/1 29/45/1
f 19/85/3 48/47/3 26/86/3
f 8/87/3 59/26/3 51/88/3
f 7/89/13 43/23/13 3/90/13
f 4/91/14 44/20/14 8/92/14
f 54/28/1 41/93/1 60/1/1
f 54/28/1 46/57/1 22/84/1
f 51/88/3 45/46/3 19/85/3
f 56/37/3 38/51/3 24/75/3
f 17/76/1 57/31/1 37/41/1
f 53/25/3 24/75/3 21/38/3
f 57/31/1 23/44/1 37/41/1
f 55/29/1 22/84/1 23/44/1
f 59/26/3 21/38/3 45/46/3
f 52/12/2 17/94/2 20/48/2
f 38/51/1 52/9/1 20/95/1
f 50/6/2 19/96/2 18/54/2
f 46/57/1 50/3/1 18/97/1
f 9/98/3 72/60/3 43/99/3
f 7/100/1 71/69/1 42/101/1
f 67/73/3 36/102/3 16/103/3
f 1/104/1 69/72/1 33/105/1
f 11/106/3 67/73/3 16/103/3
f 33/105/1 66/71/1 13/107/1
f 66/71/1 9/98/1 13/107/1
f 42/101/3 64/68/3 11/106/3
f 63/67/4 1/108/4 5/109/4
f 70/65/3 5/110/3 36/102/3
f 61/63/2 7/89/2 3/111/2
f 43/99/1 61/61/1 3/112/1
f 60/1/1 41/93/1 4/2/1
f 4/4/2 8/92/2 51/5/2
f 58/7/3 34/82/3 6/8/3
f 6/10/4 2/113/4 49/11/4
f 36/13/5 5/109/5 1/14/5
f 35/16/6 2/114/6 6/10/6
f 41/18/7 10/32/7 12/19/7
f 42/21/8 11/34/8 9/22/8
f 44/24/3 12/36/3 53/25/3
f 15/27/1 10/115/1 54/28/1
f 35/30/1 15/27/1 55/29/1
f 10/32/9 15/80/9 14/33/9
f 11/34/10 16/81/10 13/35/10
f 12/36/3 14/116/3 56/37/3
f 21/38/3 24/75/3 31/39/3
f 37/41/1 23/44/1 30/42/1
f 23/44/1 22/84/1 29/45/1
f 45/46/3 21/38/3 28/40/3
f 20/48/4 17/94/4 32/49/4
f 38/51/3 20/95/3 27/52/3
f 18/54/2 19/96/2 26/55/2
f 46/57/1 18/97/1 25/58/1
f 72/60/1 47/59/1 25/58/1
f 25/56/4 26/55/4 62/62/4
f 39/53/3 27/52/3 63/64/3
f 27/50/4 32/49/4 68/66/4
f 48/47/3 28/40/3 64/68/3
f 30/42/1 29/45/1 65/70/1
f 40/43/1 30/42/1 66/71/1
f 28/40/3 31/39/3 67/73/3
f 68/74/1 32/77/1 40/43/1
f 31/39/3 39/53/3 70/65/3
f 24/75/3 38/51/3 39/53/3
f 17/76/1 37/41/1 40/43/1
f 2/78/1 35/30/1 57/31/1
f 15/80/11 35/16/11 34/17/11
f 16/81/12 36/13/12 33/15/12
f 56/37/3 14/116/3 34/82/3
f 62/83/1 26/86/1 48/47/1
f 29/45/1 47/59/1 72/60/1
f 22/84/1 46/57/1 47/59/1
f 19/85/3 45/46/3 48/47/3
f 8/87/3 44/24/3 59/26/3
f 7/89/13 42/21/13 43/23/13
f 4/91/14 41/18/14 44/20/14
f 54/28/1 10/115/1 41/93/1
f 54/28/1 60/1/1 46/57/1
f 51/88/3 59/26/3 45/46/3
f 56/37/3 58/7/3 38/51/3
f 17/76/3 49/79/3 57/31/3
f 53/25/3 56/37/3 24/75/3
f 57/31/1 55/29/1 23/44/1
f 55/29/1 54/28/1 22/84/1
f 59/26/3 53/25/3 21/38/3
f 52/12/2 49/11/2 17/94/2
f 38/51/3 58/7/3 52/9/3
f 50/6/2 51/5/2 19/96/2
f 46/57/1 60/1/1 50/3/1
f 9/98/1 65/70/1 72/60/1
f 7/100/3 62/83/3 71/69/3
f 67/73/3 70/65/3 36/102/3
f 1/104/1 68/74/1 69/72/1
f 11/106/3 64/68/3 67/73/3
f 33/105/1 69/72/1 66/71/1
f 66/71/1 65/70/1 9/98/1
f 42/101/1 71/69/1 64/68/1
f 63/67/4 68/66/4 1/108/4
f 70/65/3 63/64/3 5/110/3
f 61/63/2 62/62/2 7/89/2
f 43/99/3 72/60/3 61/61/3
