# Blender 5.1.2
# www.blender.org
mtllib grueldoor.mtl
o Cube
v 0.405986 0.811972 -0.050000
v 0.405986 -0.811972 -0.050000
v 0.390649 0.781299 0.050000
v 0.390649 -0.781299 0.050000
v -0.405986 0.811972 -0.050000
v -0.405986 -0.811972 -0.050000
v -0.390649 0.781299 0.050000
v -0.390649 -0.781299 0.050000
v 0.500000 -1.000000 -0.050000
v -0.500000 -1.000000 -0.050000
v 0.500000 1.000000 -0.050000
v -0.500000 1.000000 -0.050000
v 0.405986 -0.811972 0.006237
v -0.405986 -0.811972 0.006237
v 0.405986 0.811972 0.006237
v -0.405986 0.811972 0.006237
v -0.500000 -1.000000 0.050000
v -0.500000 1.000000 0.050000
v 0.500000 1.000000 0.050000
v 0.500000 -1.000000 0.050000
v -0.390649 -0.781299 0.030670
v -0.390649 0.781299 0.030670
v 0.390649 0.781299 0.030670
v 0.390649 -0.781299 0.030670
vn -0.0000 1.0000 -0.0000
vn -0.0000 -1.0000 -0.0000
vn -1.0000 -0.0000 -0.0000
vn 1.0000 -0.0000 -0.0000
vn -0.0000 -0.0000 -1.0000
vn -0.0000 -0.0000 1.0000
vt 0.875000 0.500000
vt 0.625000 0.750000
vt 0.625000 0.500000
vt 0.428782 0.142065
vt 0.428782 0.839223
vt 0.625000 0.000000
vt 0.375000 0.250000
vt 0.375000 0.000000
vt 0.375000 0.500000
vt 0.125000 0.750000
vt 0.125000 0.500000
vt 0.375000 0.750000
vt 0.763940 0.851128
vt 0.763940 0.124119
vt 0.802942 0.935304
vt 0.427088 0.124120
vt 0.802942 0.039943
vt 0.388086 0.935304
vt 0.427088 0.851128
vt 0.388086 0.039943
vt 0.812042 0.044491
vt 0.764987 0.142065
vt 0.764987 0.839223
vt 0.381727 0.936797
vt 0.381727 0.044491
vt 0.812042 0.936797
vt 0.875000 0.750000
vt 0.625000 0.250000
s 0
usemtl Material
f 12/1/1 19/2/1 11/3/1
f 7/4/2 23/5/2 3/5/2
f 18/6/3 10/7/3 17/8/3
f 9/9/2 17/10/2 10/11/2
f 11/3/4 20/12/4 9/9/4
f 6/13/1 13/14/1 2/14/1
f 2/14/5 10/15/5 6/13/5
f 1/16/5 9/17/5 2/14/5
f 6/13/5 12/18/5 5/19/5
f 5/19/5 11/20/5 1/16/5
f 16/19/5 13/14/5 14/13/5
f 1/16/2 16/19/2 5/19/2
f 2/14/3 15/16/3 1/16/3
f 5/19/4 14/13/4 6/13/4
f 7/4/6 17/21/6 8/22/6
f 4/23/6 19/24/6 3/5/6
f 3/5/6 18/25/6 7/4/6
f 8/22/6 20/26/6 4/23/6
f 23/5/6 21/22/6 24/23/6
f 8/22/4 22/4/4 7/4/4
f 4/23/1 21/22/1 8/22/1
f 3/5/3 24/23/3 4/23/3
f 12/1/1 18/27/1 19/2/1
f 7/4/2 22/4/2 23/5/2
f 18/6/3 12/28/3 10/7/3
f 9/9/2 20/12/2 17/10/2
f 11/3/4 19/2/4 20/12/4
f 6/13/1 14/13/1 13/14/1
f 2/14/5 9/17/5 10/15/5
f 1/16/5 11/20/5 9/17/5
f 6/13/5 10/15/5 12/18/5
f 5/19/5 12/18/5 11/20/5
f 16/19/5 15/16/5 13/14/5
f 1/16/2 15/16/2 16/19/2
f 2/14/3 13/14/3 15/16/3
f 5/19/4 16/19/4 14/13/4
f 7/4/6 18/25/6 17/21/6
f 4/23/6 20/26/6 19/24/6
f 3/5/6 19/24/6 18/25/6
f 8/22/6 17/21/6 20/26/6
f 23/5/6 22/4/6 21/22/6
f 8/22/4 21/22/4 22/4/4
f 4/23/1 24/23/1 21/22/1
f 3/5/3 23/5/3 24/23/3
