# Blender 5.1.2
# www.blender.org
mtllib torch.mtl
o Cylinder
v 0.000000 -0.096542 -0.022099
v 0.000000 0.092258 -0.031064
v 0.012989 -0.096542 -0.017878
v 0.018259 0.092258 -0.025131
v 0.021017 -0.096542 -0.006829
v 0.029543 0.092258 -0.009599
v 0.021017 -0.096542 0.006829
v 0.029543 0.092258 0.009599
v 0.012989 -0.096542 0.017878
v 0.018259 0.092258 0.025131
v 0.000000 -0.096542 0.022099
v 0.000000 0.092258 0.031064
v -0.012989 -0.096542 0.017878
v -0.018259 0.092258 0.025131
v -0.021017 -0.096542 0.006829
v -0.029543 0.092258 0.009599
v -0.021017 -0.096542 -0.006829
v -0.029543 0.092258 -0.009599
v -0.012989 -0.096542 -0.017878
v -0.018259 0.092258 -0.025131
v 0.015420 0.291001 -0.021224
v -0.000000 0.291001 -0.026235
v 0.024951 0.291001 -0.008107
v 0.024951 0.291001 0.008107
v 0.015420 0.291001 0.021224
v -0.000000 0.291001 0.026235
v -0.015420 0.291001 0.021224
v -0.024951 0.291001 0.008107
v -0.024951 0.291001 -0.008107
v -0.015420 0.291001 -0.021224
v 0.018259 0.273502 -0.025131
v -0.000000 0.273502 -0.031064
v 0.029543 0.273502 -0.009599
v 0.029543 0.273502 0.009599
v 0.018259 0.273502 0.025131
v -0.000000 0.273502 0.031064
v -0.018259 0.273502 0.025131
v -0.029543 0.273502 0.009599
v -0.029543 0.273502 -0.009599
v -0.018259 0.273502 -0.025131
v 0.000000 -0.092258 -0.025265
v 0.014850 -0.092258 -0.020440
v 0.024028 -0.092258 -0.007807
v 0.024028 -0.092258 0.007807
v 0.014850 -0.092258 0.020440
v 0.000000 -0.092258 0.025265
v -0.014850 -0.092258 0.020440
v -0.024028 -0.092258 0.007807
v -0.024028 -0.092258 -0.007807
v -0.014850 -0.092258 -0.020440
vn 0.3089 -0.0299 -0.9506
vn 0.8087 -0.0299 -0.5875
vn 0.9996 -0.0299 -0.0000
vn 0.8087 -0.0299 0.5875
vn 0.3089 -0.0299 0.9506
vn -0.3089 -0.0299 0.9506
vn -0.8087 -0.0299 0.5875
vn -0.9996 -0.0299 -0.0000
vn 0.3090 -0.0000 0.9511
vn -0.8087 -0.0299 -0.5875
vn -0.3089 -0.0299 -0.9506
vn -0.0000 -1.0000 -0.0000
vn -0.0000 1.0000 -0.0000
vn 0.8090 -0.0000 0.5878
vn 0.3090 -0.0000 -0.9511
vn 1.0000 -0.0000 -0.0000
vn 0.8090 -0.0000 -0.5878
vn -0.3090 -0.0000 -0.9511
vn -0.8090 -0.0000 -0.5878
vn -1.0000 -0.0000 -0.0000
vn -0.8090 -0.0000 0.5878
vn -0.3090 -0.0000 0.9511
vn 0.2989 0.2539 -0.9199
vn 0.7825 0.2539 -0.5685
vn 0.9672 0.2539 -0.0000
vn 0.7825 0.2539 0.5685
vn 0.2989 0.2539 0.9199
vn -0.2989 0.2539 0.9199
vn -0.7825 0.2539 0.5685
vn -0.9672 0.2539 -0.0000
vn -0.7825 0.2539 -0.5685
vn -0.2989 0.2539 -0.9199
vn 0.2528 -0.5751 -0.7780
vn 0.6618 -0.5751 -0.4809
vn 0.8181 -0.5751 -0.0000
vn 0.6618 -0.5751 0.4809
vn 0.2528 -0.5751 0.7780
vn -0.2528 -0.5751 0.7780
vn -0.6618 -0.5751 0.4809
vn -0.8181 -0.5751 -0.0000
vn -0.6618 -0.5751 -0.4809
vn -0.2528 -0.5751 -0.7780
vt 0.091640 0.306121
vt 0.078175 0.102035
vt 0.087155 0.094313
vt 0.080660 0.312459
vt 0.069085 0.105637
vt 0.069915 0.315812
vt 0.059971 0.105533
vt 0.059230 0.316288
vt 0.050846 0.101819
vt 0.048468 0.313882
vt 0.041731 0.094313
vt 0.090003 0.314049
vt 0.077358 0.122805
vt 0.085791 0.115570
vt 0.079692 0.319988
vt 0.068822 0.126181
vt 0.069602 0.323130
vt 0.060264 0.126083
vt 0.036708 0.519963
vt 0.037485 0.308520
vt 0.059567 0.323576
vt 0.051695 0.122603
vt 0.049462 0.321321
vt 0.043135 0.115570
vt 0.045634 0.093197
vt 0.089180 0.093056
vt 0.080823 0.123395
vt 0.065660 0.505302
vt 0.054427 0.462003
vt 0.078072 0.462129
vt 0.048022 0.521711
vt 0.081740 0.518210
vt 0.059301 0.522097
vt 0.070540 0.520873
vt 0.038418 0.514434
vt 0.039148 0.316297
vt 0.049043 0.516072
vt 0.059635 0.516434
vt 0.070189 0.515287
vt 0.080706 0.512792
vt 0.085463 0.474072
vt 0.090777 0.490932
vt 0.085326 0.488926
vt 0.090777 0.471875
vt 0.066291 0.457379
vt 0.081271 0.456735
vt 0.066330 0.450912
vt 0.046730 0.473740
vt 0.051110 0.456446
vt 0.046538 0.488534
vt 0.041349 0.471690
vt 0.053726 0.500650
vt 0.041201 0.490646
vt 0.050498 0.506060
vt 0.077771 0.500943
vt 0.065588 0.511865
vt 0.081132 0.506587
vt 0.067386 0.128645
vt 0.051847 0.126897
vt 0.053939 0.123489
vt 0.042252 0.111241
vt 0.045611 0.109953
vt 0.042252 0.091921
vt 0.053919 0.079565
vt 0.051807 0.076158
vt 0.067380 0.070151
vt 0.067387 0.074334
vt 0.082961 0.076083
vt 0.080865 0.079495
vt 0.092542 0.091770
vt 0.092541 0.111095
vt 0.089161 0.109811
vt 0.082927 0.126799
vt 0.067395 0.132820
vt 0.092837 0.514843
vt 0.091126 0.509637
s 0
usemtl Material.001
f 2/1/1 42/2/1 41/3/1
f 4/4/2 43/5/2 42/2/2
f 6/6/3 44/7/3 43/5/3
f 8/8/4 45/9/4 44/7/4
f 10/10/5 46/11/5 45/9/5
f 12/12/6 47/13/6 46/14/6
f 14/15/7 48/16/7 47/13/7
f 16/17/8 49/18/8 48/16/8
f 10/10/9 36/19/9 12/20/9
f 18/21/10 50/22/10 49/18/10
f 20/23/11 41/24/11 50/22/11
f 7/25/12 15/26/12 19/27/12
f 29/28/13 25/29/13 23/30/13
f 8/8/14 35/31/14 10/10/14
f 2/1/15 31/32/15 4/4/15
f 6/6/16 34/33/16 8/8/16
f 4/4/17 33/34/17 6/6/17
f 20/23/18 32/35/18 2/36/18
f 18/21/19 40/37/19 20/23/19
f 16/17/20 39/38/20 18/21/20
f 14/15/21 38/39/21 16/17/21
f 12/12/22 37/40/22 14/15/22
f 21/41/23 32/42/23 22/43/23
f 23/30/24 31/44/24 21/41/24
f 24/45/25 33/46/25 23/30/25
f 25/29/26 34/47/26 24/45/26
f 26/48/27 35/49/27 25/29/27
f 27/50/28 36/51/28 26/48/28
f 28/52/29 37/53/29 27/50/29
f 29/28/30 38/54/30 28/52/30
f 30/55/31 39/56/31 29/28/31
f 22/43/32 40/57/32 30/55/32
f 1/58/33 42/59/33 3/60/33
f 3/60/34 43/61/34 5/62/34
f 5/62/35 44/63/35 7/25/35
f 9/64/36 44/63/36 45/65/36
f 9/64/37 46/66/37 11/67/37
f 11/67/38 47/68/38 13/69/38
f 13/69/39 48/70/39 15/26/39
f 15/26/40 49/71/40 17/72/40
f 19/27/41 49/71/41 50/73/41
f 19/27/42 41/74/42 1/58/42
f 2/1/1 4/4/1 42/2/1
f 4/4/2 6/6/2 43/5/2
f 6/6/3 8/8/3 44/7/3
f 8/8/4 10/10/4 45/9/4
f 10/10/5 12/20/5 46/11/5
f 12/12/6 14/15/6 47/13/6
f 14/15/7 16/17/7 48/16/7
f 16/17/8 18/21/8 49/18/8
f 10/10/9 35/31/9 36/19/9
f 18/21/10 20/23/10 50/22/10
f 20/23/11 2/36/11 41/24/11
f 19/27/12 1/58/12 3/60/12
f 3/60/12 5/62/12 7/25/12
f 7/25/12 9/64/12 11/67/12
f 11/67/12 13/69/12 15/26/12
f 15/26/12 17/72/12 19/27/12
f 19/27/12 3/60/12 7/25/12
f 7/25/12 11/67/12 15/26/12
f 23/30/13 21/41/13 22/43/13
f 22/43/13 30/55/13 29/28/13
f 29/28/13 28/52/13 27/50/13
f 27/50/13 26/48/13 25/29/13
f 25/29/13 24/45/13 23/30/13
f 23/30/13 22/43/13 29/28/13
f 29/28/13 27/50/13 25/29/13
f 8/8/14 34/33/14 35/31/14
f 2/1/15 32/75/15 31/32/15
f 6/6/16 33/34/16 34/33/16
f 4/4/17 31/32/17 33/34/17
f 20/23/18 40/37/18 32/35/18
f 18/21/19 39/38/19 40/37/19
f 16/17/20 38/39/20 39/38/20
f 14/15/21 37/40/21 38/39/21
f 12/12/22 36/76/22 37/40/22
f 21/41/23 31/44/23 32/42/23
f 23/30/24 33/46/24 31/44/24
f 24/45/25 34/47/25 33/46/25
f 25/29/26 35/49/26 34/47/26
f 26/48/27 36/51/27 35/49/27
f 27/50/28 37/53/28 36/51/28
f 28/52/29 38/54/29 37/53/29
f 29/28/30 39/56/30 38/54/30
f 30/55/31 40/57/31 39/56/31
f 22/43/32 32/42/32 40/57/32
f 1/58/33 41/74/33 42/59/33
f 3/60/34 42/59/34 43/61/34
f 5/62/35 43/61/35 44/63/35
f 9/64/36 7/25/36 44/63/36
f 9/64/37 45/65/37 46/66/37
f 11/67/38 46/66/38 47/68/38
f 13/69/39 47/68/39 48/70/39
f 15/26/40 48/70/40 49/71/40
f 19/27/41 17/72/41 49/71/41
f 19/27/42 50/73/42 41/74/42
